<svg xmlns="http://www.w3.org/2000/svg" viewBox="0 0 512 512" width="512" height="512">
  <defs>
    <linearGradient id="s" x1="0" y1="0" x2="1" y2="1">
      <stop offset="0" stop-color="#ffffff"/>
      <stop offset="0.5" stop-color="#c9c9cf"/>
      <stop offset="1" stop-color="#8f8f96"/>
    </linearGradient>
  </defs>
  <rect width="512" height="512" rx="112" fill="#0A0A0A"/>
  <rect x="8" y="8" width="496" height="496" rx="104" fill="none" stroke="#262626" stroke-width="4"/>
  <g fill="none" stroke="url(#s)" stroke-width="26" stroke-linecap="round" stroke-linejoin="round">
    <path d="M150 116 H128 A12 12 0 0 0 116 128 V150"/>
    <path d="M362 116 H384 A12 12 0 0 1 396 128 V150"/>
    <path d="M150 396 H128 A12 12 0 0 1 116 384 V362"/>
    <path d="M362 396 H384 A12 12 0 0 0 396 384 V362"/>
    <line x1="116" y1="256" x2="396" y2="256" opacity="0.95"/>
  </g>
</svg>
